# Alias OBJ Model File
# Exported from SketchUp, (c) 2000-2012 Trimble Navigation Limited
# File units = inches

mtllib Erlenmeyer.mtl

g Mesh1 Group2 Group1 erlenmeyer_flask_1_1 Model

usemtl _Blue_Glass_1
v 4.14364 1.14307 -5.11704e-014
vt 50.3158 -2.52451
vn 4.90079e-015 0.383909 0.923371
v 5.21609 1.14307 -0.141191
vt 63.5642 -2.52451
vn 0.238986 0.383909 0.891908
v 4.52401 7.57445 -2.72405
vt 59.2895 82.6749
v 4.14364 7.57445 -2.67397
vt 54.5906 82.6749
f 1/1/1 2/2/2 3/3/2 4/4/1 

vt 59.6839 -8.70827
v 6.21545 1.14307 -0.555142
vt 72.9323 -8.70827
vn 0.461685 0.383909 0.799663
v 4.87847 7.57445 -2.87087
vt 68.6575 76.4911
vt 63.9586 76.4911
f 2/5/2 5/6/3 6/7/3 3/8/2 

vt 64.5331 -15.6054
v 7.07363 1.14307 -1.21364
vt 77.7815 -15.6054
vn 0.652922 0.383909 0.652922
v 5.18285 7.57445 -3.10443
vt 73.5068 69.5941
vt 68.8079 69.5941
f 5/9/3 7/10/4 8/11/4 6/12/3 

vt 64.5331 -22.7457
v 7.73213 1.14307 -2.07182
vt 77.7815 -22.7457
vn 0.799663 0.383909 0.461685
v 5.4164 7.57445 -3.4088
vt 73.5068 62.4537
vt 68.8079 62.4537
f 7/13/4 9/14/5 10/15/5 8/16/4 

vt 59.6839 -29.6428
v 8.14608 1.14307 -3.07118
vt 72.9323 -29.6428
vn 0.891908 0.383909 0.238986
v 5.56322 7.57445 -3.76326
vt 68.6575 55.5566
vt 63.9586 55.5566
f 9/17/5 11/18/6 12/19/6 10/20/5 

vt 50.3158 -35.8266
v 8.28727 1.14307 -4.14364
vt 63.5642 -35.8266
vn 0.923371 0.383909 2.79599e-016
v 5.6133 7.57445 -4.14364
vt 59.2895 49.3728
vt 54.5906 49.3728
f 11/21/6 13/22/7 14/23/7 12/24/6 

vt 41.3422 44.3238
vt 37.0674 -40.8756
v 8.14608 1.14307 -5.21609
vt 50.3158 -40.8756
vn 0.891908 0.383909 -0.238986
v 5.56322 7.57445 -4.52401
vt 46.0411 44.3238
f 14/25/7 13/26/7 15/27/8 16/28/8 

vt 25.1162 40.7536
vt 20.8415 -44.4458
v 7.73213 1.14307 -6.21545
vt 34.0899 -44.4458
vn 0.799663 0.383909 -0.461685
v 5.4164 7.57445 -4.87847
vt 29.8152 40.7536
f 16/29/8 15/30/8 17/31/9 18/32/9 

vt 7.01857 38.9055
vt 2.74384 -46.2939
v 7.07363 1.14307 -7.07363
vt 15.9922 -46.2939
vn 0.652922 0.383909 -0.652922
v 5.18285 7.57445 -5.18285
vt 11.7175 38.9055
f 18/33/9 17/34/9 19/35/10 20/36/10 

vt -11.7175 38.9055
vt -15.9922 -46.2939
v 6.21545 1.14307 -7.73213
vt -2.74384 -46.2939
vn 0.461685 0.383909 -0.799663
v 4.87847 7.57445 -5.4164
vt -7.01857 38.9055
f 20/37/10 19/38/10 21/39/11 22/40/11 

vt -29.8152 40.7536
vt -34.0899 -44.4458
v 5.21609 1.14307 -8.14608
vt -20.8415 -44.4458
vn 0.238986 0.383909 -0.891908
v 4.52401 7.57445 -5.56322
vt -25.1162 40.7536
f 22/41/11 21/42/11 23/43/12 24/44/12 

vt -46.0411 44.3238
vt -50.3158 -40.8756
v 4.14364 1.14307 -8.28727
vt -37.0674 -40.8756
vn 5.56484e-015 0.383909 -0.923371
v 4.14364 7.57445 -5.6133
vt -41.3422 44.3238
f 24/45/12 23/46/12 25/47/13 26/48/13 

vt -59.2895 49.3728
vt -63.5642 -35.8266
v 3.07118 1.14307 -8.14608
vt -50.3158 -35.8266
vn -0.238986 0.383909 -0.891908
v 3.76326 7.57445 -5.56322
vt -54.5906 49.3728
f 26/49/13 25/50/13 27/51/14 28/52/14 

vt -68.6575 55.5566
vt -72.9323 -29.6428
v 2.07182 1.14307 -7.73213
vt -59.6839 -29.6428
vn -0.461685 0.383909 -0.799663
v 3.4088 7.57445 -5.4164
vt -63.9586 55.5566
f 28/53/14 27/54/14 29/55/15 30/56/15 

vt -73.5068 62.4537
vt -77.7815 -22.7457
v 1.21364 1.14307 -7.07363
vt -64.5331 -22.7457
vn -0.652922 0.383909 -0.652922
v 3.10443 7.57445 -5.18285
vt -68.8079 62.4537
f 30/57/15 29/58/15 31/59/16 32/60/16 

vt -73.5068 69.5941
vt -77.7815 -15.6054
v 0.555142 1.14307 -6.21545
vt -64.5331 -15.6054
vn -0.799663 0.383909 -0.461685
v 2.87087 7.57445 -4.87847
vt -68.8079 69.5941
f 32/61/16 31/62/16 33/63/17 34/64/17 

vt -68.6575 76.4911
vt -72.9323 -8.70827
v 0.141191 1.14307 -5.21609
vt -59.6839 -8.70827
vn -0.891908 0.383909 -0.238986
v 2.72405 7.57445 -4.52401
vt -63.9586 76.4911
f 34/65/17 33/66/17 35/67/18 36/68/18 

vt -59.2895 82.6749
vt -63.5642 -2.52451
v -2.41972e-014 1.14307 -4.14364
vt -50.3158 -2.52451
vn -0.923371 0.383909 -4.12409e-016
v 2.67397 7.57445 -4.14364
vt -54.5906 82.6749
f 36/69/18 35/70/18 37/71/19 38/72/19 

vt -50.3158 2.52451
v 0.141191 1.14307 -3.07118
vt -37.0674 2.52451
vn -0.891908 0.383909 0.238986
v 2.72405 7.57445 -3.76326
vt -41.3422 87.7239
vt -46.0411 87.7239
f 37/73/19 39/74/20 40/75/20 38/76/19 

vt -34.0899 6.0947
v 0.555142 1.14307 -2.07182
vt -20.8415 6.0947
vn -0.799663 0.383909 0.461685
v 2.87087 7.57445 -3.4088
vt -25.1162 91.2941
vt -29.8152 91.2941
f 39/77/20 41/78/21 42/79/21 40/80/20 

vt -15.9922 7.94277
v 1.21364 1.14307 -1.21364
vt -2.74384 7.94277
vn -0.652922 0.383909 0.652922
v 3.10443 7.57445 -3.10443
vt -7.01857 93.1422
vt -11.7175 93.1422
f 41/81/21 43/82/22 44/83/22 42/84/21 

vt 2.74384 7.94277
v 2.07182 1.14307 -0.555142
vt 15.9922 7.94277
vn -0.461685 0.383909 0.799663
v 3.4088 7.57445 -2.87087
vt 11.7175 93.1422
vt 7.01857 93.1422
f 43/85/22 45/86/23 46/87/23 44/88/22 

vt 20.8415 6.0947
v 3.07118 1.14307 -0.141191
vt 34.0899 6.0947
vn -0.238986 0.383909 0.891908
v 3.76326 7.57445 -2.72405
vt 29.8152 91.2941
vt 25.1162 91.2941
f 45/89/23 47/90/24 48/91/24 46/92/23 

vt 37.0674 2.52451
vt 50.3158 2.52451
vt 46.0411 87.7239
vt 41.3422 87.7239
f 47/93/24 1/94/1 4/95/1 48/96/24 

vt 41.3422 78.7696
vn -0.258819 3.97311e-015 0.965926
vt 46.0411 78.7696
vn -3.00947e-015 4.61982e-029 1
v 4.14364 11.0037 -2.67397
vt 46.0411 120.77
v 3.76326 11.0037 -2.72405
vt 41.3422 120.77
f 48/97/25 4/98/26 49/99/26 50/100/25 

vt 54.5906 78.7696
vt 59.2895 78.7696
vn 0.258819 -3.97311e-015 0.965926
v 4.52401 11.0037 -2.72405
vt 59.2895 120.77
vt 54.5906 120.77
f 4/101/26 3/102/27 51/103/27 49/104/26 

vt 63.9586 78.7696
vt 68.6575 78.7696
vn 0.5 -7.58284e-015 0.866025
v 4.87847 11.0037 -2.87087
vt 68.6575 120.77
vt 63.9586 120.77
f 3/105/27 6/106/28 52/107/28 51/108/27 

vt 68.8079 78.7696
vt 73.5068 78.7696
vn 0.707107 -1.06417e-014 0.707107
v 5.18285 10.5138 -3.10443
vt 73.5068 114.77
v 5.18285 11.0037 -3.10443
vt 73.5068 120.77
vt 68.8079 120.77
f 6/109/28 8/110/29 53/111/29 54/112/29 52/113/28 

vn 0.866025 -1.31739e-014 0.5
v 5.4164 11.0037 -3.4088
vt 68.8079 114.77
f 8/109/29 10/110/30 55/112/30 54/113/29 53/114/29 

vn 0.965926 -1.48279e-014 0.258819
v 5.56322 11.0037 -3.76326
f 10/105/30 12/106/31 56/107/31 55/108/30 

vn 1 -1.53509e-014 -3.00947e-015
v 5.6133 11.0037 -4.14364
f 12/101/31 14/102/32 57/103/32 56/104/31 

vn 0.965926 -1.48279e-014 -0.258819
v 5.56322 11.0037 -4.52401
f 14/97/32 16/98/33 58/99/33 57/100/32 

vt 25.1162 78.7696
vt 29.8152 78.7696
vn 0.866025 -1.31739e-014 -0.5
v 5.4164 11.0037 -4.87847
vt 29.8152 120.77
vt 25.1162 120.77
f 16/115/33 18/116/34 59/117/34 58/118/33 

vt 7.01857 78.7696
vt 11.7175 78.7696
vn 0.707107 -1.06424e-014 -0.707107
v 5.18285 10.5138 -5.18285
vt 11.7175 114.77
v 5.18285 11.0037 -5.18285
vt 11.7175 120.77
vt 7.01857 120.77
f 18/119/34 20/120/35 60/121/35 61/122/35 59/123/34 

vt -11.7175 78.7696
vt -7.01857 78.7696
vn 0.5 -7.58355e-015 -0.866025
v 4.87847 11.0037 -5.4164
vt -7.01857 120.77
vt -11.7175 120.77
vt -11.7175 114.77
f 20/124/35 22/125/36 62/126/36 61/127/35 60/128/35 

vt -29.8152 78.7696
vt -25.1162 78.7696
vn 0.258819 -3.97311e-015 -0.965926
v 4.52401 11.0037 -5.56322
vt -25.1162 120.77
vt -29.8152 120.77
f 22/129/36 24/130/37 63/131/37 62/132/36 

vt -46.0411 78.7696
vt -41.3422 78.7696
vn 0 0 -1
v 4.14364 11.0037 -5.6133
vt -41.3422 120.77
vt -46.0411 120.77
f 24/133/37 26/134/38 64/135/38 63/136/37 

vt -59.2895 78.7696
vt -54.5906 78.7696
vn -0.258819 3.97311e-015 -0.965926
v 3.76326 11.0037 -5.56322
vt -54.5906 120.77
vt -59.2895 120.77
f 26/137/38 28/138/39 65/139/39 64/140/38 

vt -68.6575 78.7696
vt -63.9586 78.7696
vn -0.5 7.63129e-015 -0.866025
v 3.4088 11.0037 -5.4164
vt -63.9586 120.77
vt -68.6575 120.77
f 28/141/39 30/142/40 66/143/40 65/144/39 

vt -73.5068 78.7696
vt -68.8079 78.7696
vn -0.707107 1.07521e-014 -0.707107
v 3.10443 10.5138 -5.18285
vt -68.8079 114.77
v 3.10443 11.0037 -5.18285
vt -68.8079 120.77
vt -73.5068 120.77
f 30/145/40 32/146/41 67/147/41 68/148/41 66/149/40 

vn -0.866025 1.32359e-014 -0.5
v 2.87087 11.0037 -4.87847
vt -73.5068 114.77
f 32/145/41 34/146/42 69/148/42 68/149/41 67/150/41 

vn -0.965926 1.48279e-014 -0.258819
v 2.72405 11.0037 -4.52401
f 34/141/42 36/142/43 70/143/43 69/144/42 

vn -1 1.53509e-014 -1.88967e-015
v 2.67397 11.0037 -4.14364
f 36/137/43 38/138/44 71/139/44 70/140/43 

vn -0.965926 1.48279e-014 0.258819
v 2.72405 11.0037 -3.76326
f 38/133/44 40/134/45 72/135/45 71/136/44 

vn -0.866025 1.32665e-014 0.5
v 2.87087 11.0037 -3.4088
f 40/129/45 42/130/46 73/131/46 72/132/45 

vn -0.707107 1.08042e-014 0.707107
v 3.10443 10.5138 -3.10443
vt -7.01857 114.77
v 3.10443 11.0037 -3.10443
f 42/124/46 44/125/47 74/151/47 75/126/47 73/127/46 

vn -0.5 7.65266e-015 0.866025
v 3.4088 11.0037 -2.87087
vt 7.01857 114.77
f 44/119/47 46/120/48 76/122/48 75/123/47 74/152/47 

f 46/115/48 48/116/25 50/117/25 76/118/48 

g Mesh2 Group2 Group1 erlenmeyer_flask_1_1 Model

v 5.69641 11.0037 -3.24714
vt 63.4417 128.017
vn 0.722793 -0.550842 0.417305
v 5.4164 10.5138 -3.4088
vt 63.9586 120.847
v 5.56322 10.5138 -3.76326
vt 68.6575 120.847
vn 0.806171 -0.550842 0.216013
v 5.87553 11.0037 -3.67958
vt 69.1744 128.017
f 77/153/49 78/154/49 79/155/50 80/156/50 

vt 68.8079 110.937
vn 0.590158 -0.550842 0.590158
vt 73.5068 110.937
vt 74.0237 118.108
v 5.41147 11.0037 -2.8758
vt 68.291 118.108
f 53/157/51 78/158/49 77/159/49 81/160/51 

vt 73.5068 100.678
vt 74.0237 107.849
v 5.04013 11.0037 -2.59086
vt 68.291 107.849
vn 0.417305 -0.550842 0.722793
v 4.87847 10.5138 -2.87087
vt 68.8079 100.678
f 53/161/51 81/162/51 82/163/52 83/164/52 

vt 68.6575 90.7691
vt 69.1744 97.9395
v 4.6077 11.0037 -2.41174
vt 63.4417 97.9395
vn 0.216013 -0.550842 0.806171
v 4.52401 10.5138 -2.72405
vt 63.9586 90.7691
f 83/165/52 82/166/52 84/167/53 85/168/53 

vt 59.2895 81.8847
vt 59.8064 89.055
v 4.14364 11.0037 -2.35065
vt 54.0737 89.055
vn -1.6016e-014 -0.550842 0.834609
v 4.14364 10.5138 -2.67397
vt 54.5906 81.8847
f 85/169/53 84/170/53 86/171/54 87/172/54 

vt 46.0411 74.6305
vt 46.558 81.8009
v 3.67958 11.0037 -2.41174
vt 40.8253 81.8009
vn -0.216013 -0.550842 0.806171
v 3.76326 10.5138 -2.72405
vt 41.3422 74.6305
f 87/173/54 86/174/54 88/175/55 89/176/55 

vt 29.8152 69.5011
vt 30.3321 76.6715
v 3.24714 11.0037 -2.59086
vt 24.5993 76.6715
vn -0.417305 -0.550842 0.722793
v 3.4088 10.5138 -2.87087
vt 25.1162 69.5011
f 89/177/55 88/178/55 90/179/56 91/180/56 

vt 11.7175 66.8459
vt 12.2344 74.0163
v 2.8758 11.0037 -2.8758
vt 6.50168 74.0163
vn -0.590158 -0.550842 0.590158
vt 7.01857 66.8459
f 91/181/56 90/182/56 92/183/57 74/184/57 

vt -6.50168 74.0163
v 2.59086 11.0037 -3.24714
vt -12.2344 74.0163
vn -0.722793 -0.550842 0.417305
v 2.87087 10.5138 -3.4088
vt -11.7175 66.8459
vt -7.01857 66.8459
f 92/185/57 93/186/58 94/187/58 74/188/57 

vt -24.5993 76.6715
v 2.41174 11.0037 -3.67958
vt -30.3321 76.6715
vn -0.806171 -0.550842 0.216013
v 2.72405 10.5138 -3.76326
vt -29.8152 69.5011
vt -25.1162 69.5011
f 93/189/58 95/190/59 96/191/59 94/192/58 

vt -40.8253 81.8009
v 2.35065 11.0037 -4.14364
vt -46.558 81.8009
vn -0.834609 -0.550842 -4.83759e-015
v 2.67397 10.5138 -4.14364
vt -46.0411 74.6305
vt -41.3422 74.6305
f 95/193/59 97/194/60 98/195/60 96/196/59 

vt -54.0737 89.055
v 2.41174 11.0037 -4.6077
vt -59.8064 89.055
vn -0.806171 -0.550842 -0.216013
v 2.72405 10.5138 -4.52401
vt -59.2895 81.8847
vt -54.5906 81.8847
f 97/197/60 99/198/61 100/199/61 98/200/60 

vt -63.4417 97.9395
v 2.59086 11.0037 -5.04013
vt -69.1744 97.9395
vn -0.722793 -0.550842 -0.417305
v 2.87087 10.5138 -4.87847
vt -68.6575 90.7691
vt -63.9586 90.7691
f 99/201/61 101/202/62 102/203/62 100/204/61 

vt -68.291 107.849
v 2.8758 11.0037 -5.41147
vt -74.0237 107.849
vn -0.590158 -0.550842 -0.590158
vt -73.5068 100.678
vt -68.8079 100.678
f 101/205/62 103/206/63 67/207/63 102/208/62 

vt -68.8079 110.937
vt -68.291 118.108
v 3.24714 11.0037 -5.69641
vt -74.0237 118.108
vn -0.417305 -0.550842 -0.722793
v 3.4088 10.5138 -5.4164
vt -73.5068 110.937
f 67/209/63 103/210/63 104/211/64 105/212/64 

vt -63.9586 120.847
vt -63.4417 128.017
v 3.67958 11.0037 -5.87553
vt -69.1744 128.017
vn -0.216013 -0.550842 -0.806171
v 3.76326 10.5138 -5.56322
vt -68.6575 120.847
f 105/213/64 104/214/64 106/215/65 107/216/65 

vt -54.5906 129.731
vt -54.0737 136.901
v 4.14364 11.0037 -5.93663
vt -59.8064 136.901
vn -8.97949e-015 -0.550842 -0.834609
v 4.14364 10.5138 -5.6133
vt -59.2895 129.731
f 107/217/65 106/218/65 108/219/66 109/220/66 

vt -41.3422 136.985
vt -40.8253 144.156
v 4.6077 11.0037 -5.87553
vt -46.558 144.156
vn 0.216013 -0.550842 -0.806171
v 4.52401 10.5138 -5.56322
vt -46.0411 136.985
f 109/221/66 108/222/66 110/223/67 111/224/67 

vt -25.1162 142.115
vt -24.5993 149.285
v 5.04013 11.0037 -5.69641
vt -30.3321 149.285
vn 0.417305 -0.550842 -0.722793
v 4.87847 10.5138 -5.4164
vt -29.8152 142.115
f 111/225/67 110/226/67 112/227/68 113/228/68 

vt -7.01857 144.77
vt -6.50168 151.94
v 5.41147 11.0037 -5.41147
vt -12.2344 151.94
vn 0.590158 -0.550842 -0.590158
vt -11.7175 144.77
f 113/229/68 112/230/68 114/231/69 60/232/69 

v 5.4164 10.5138 -4.87847
vt 7.01857 144.77
vn 0.722793 -0.550842 -0.417305
vt 11.7175 144.77
vt 12.2344 151.94
v 5.69641 11.0037 -5.04013
vt 6.50168 151.94
f 115/233/70 60/234/69 114/235/69 116/236/70 

v 5.87553 11.0037 -4.6077
vt 24.5993 149.285
vn 0.806171 -0.550842 -0.216013
v 5.56322 10.5138 -4.52401
vt 25.1162 142.115
vt 29.8152 142.115
vt 30.3321 149.285
f 117/237/71 118/238/71 115/239/70 116/240/70 

v 5.93663 11.0037 -4.14364
vt 40.8253 144.156
vn 0.834609 -0.550842 -4.83759e-015
v 5.6133 10.5138 -4.14364
vt 41.3422 136.985
vt 46.0411 136.985
vt 46.558 144.156
f 119/241/72 120/242/72 118/243/71 117/244/71 

vt 54.0737 136.901
vt 54.5906 129.731
vt 59.2895 129.731
vt 59.8064 136.901
f 80/245/50 79/246/50 120/247/72 119/248/72 

g Mesh3 Group1 erlenmeyer_flask_1_1 Model

v 6.72723 1.57745e-014 -6.72723
vt 15.2091 45.149
vn 0.65001 -0.393669 -0.65001
v 7.07363 1.14393 -7.07363
vt 15.9922 60.3701
v 7.73213 1.14393 -6.21545
vt 2.74384 60.3701
vn 0.796096 -0.393669 -0.459626
v 7.30787 6.86102e-015 -5.97051
vt 3.52699 45.149
f 121/249/73 122/250/73 123/251/74 124/252/74 

v 5.97051 2.73908e-014 -7.30787
vt -3.52699 45.149
vn 0.459626 -0.393669 -0.796096
v 6.21545 1.14393 -7.73213
vt -2.74384 60.3701
vt -15.9922 60.3701
vt -15.2091 45.149
f 125/253/75 126/254/75 122/255/73 121/256/73 

v 5.0893 4.09183e-014 -7.67289
vt -21.6247 43.2538
vn 0.23792 -0.393669 -0.88793
v 5.21609 1.14393 -8.14608
vt -20.8415 58.4749
vt -34.0899 58.4749
vt -33.3067 43.2538
f 127/257/76 128/258/76 126/259/75 125/260/75 

v 4.14364 5.5435e-014 -7.79738
vt -37.8506 39.5926
vn -6.21792e-015 -0.393669 -0.919252
v 4.14364 1.14393 -8.28727
vt -37.0674 54.8137
vt -50.3158 54.8137
vt -49.5327 39.5926
f 129/261/77 130/262/77 128/263/76 127/264/76 

v 3.19798 6.99518e-014 -7.67289
vt -51.099 34.4149
vn -0.23792 -0.393669 -0.88793
v 3.07118 1.14393 -8.14608
vt -50.3158 49.636
vt -63.5642 49.636
vt -62.7811 34.4149
f 131/265/78 132/266/78 130/267/77 129/268/77 

v 2.31676 8.34792e-014 -7.30787
vt -60.467 28.0735
vn -0.459626 -0.393669 -0.796096
v 2.07182 1.14393 -7.73213
vt -59.6839 43.2946
vt -72.9323 43.2946
vt -72.1491 28.0735
f 133/269/79 134/270/79 132/271/78 131/272/78 

v 1.56005 9.50955e-014 -6.72723
vt -65.3163 21.0006
vn -0.65001 -0.393669 -0.65001
v 1.21364 1.14393 -7.07363
vt -64.5331 36.2217
vt -77.7815 36.2217
vt -76.9984 21.0006
f 135/273/80 136/274/80 134/275/79 133/276/79 

v 0.979397 1.04009e-013 -5.97051
vt -65.3163 13.6783
vn -0.796096 -0.393669 -0.459626
v 0.555142 1.14393 -6.21545
vt -64.5331 28.8994
vt -77.7815 28.8994
vt -76.9984 13.6783
f 137/277/81 138/278/81 136/279/80 135/280/80 

v 0.614386 1.09612e-013 -5.0893
vt -60.467 6.60538
vn -0.88793 -0.393669 -0.23792
v 0.141191 1.14393 -5.21609
vt -59.6839 21.8265
vt -72.9323 21.8265
vt -72.1491 6.60538
f 139/281/82 140/282/82 138/283/81 137/284/81 

v 0.489888 1.11523e-013 -4.14364
vt -51.099 0.264011
vn -0.919252 -0.393669 -7.61858e-016
v -2.4184e-014 1.14393 -4.14364
vt -50.3158 15.4851
vt -63.5642 15.4851
vt -62.7811 0.264011
f 141/285/83 142/286/83 140/287/82 139/288/82 

v 0.141191 1.14393 -3.07118
vt -37.0674 10.3074
vn -0.88793 -0.393669 0.23792
vt -50.3158 10.3074
vt -49.5327 -4.9137
v 0.614386 1.09612e-013 -3.19798
vt -37.8506 -4.9137
f 143/289/84 142/290/83 141/291/83 144/292/84 

v 5.97051 2.73908e-014 -0.979397
vt -73.125 11.9954
vn -1.53509e-014 -1 4.72711e-033
v 5.0893 4.09183e-014 -0.614386
vt -62.3322 7.52482
v 4.14364 5.5435e-014 -0.489888
vt -50.75 6
v 3.19798 6.99518e-014 -0.614386
vt -39.1678 7.52482
v 2.31676 8.34792e-014 -0.979397
vt -28.375 11.9954
v 1.56005 9.50955e-014 -1.56005
vt -19.107 19.107
v 0.979397 1.04009e-013 -2.31676
vt -11.9954 28.375
vt -7.52482 39.1678
vt -6 50.75
vt -7.52482 62.3322
vt -11.9954 73.125
vt -19.107 82.393
vt -28.375 89.5046
vt -39.1678 93.9752
vt -50.75 95.5
vt -62.3322 93.9752
vt -73.125 89.5046
vt -82.393 82.393
vt -89.5046 73.125
v 7.67289 1.25777e-015 -5.0893
vt -93.9752 62.3322
v 7.79738 -6.53401e-016 -4.14364
vt -95.5 50.75
v 7.67289 1.25777e-015 -3.19798
vt -93.9752 39.1678
v 7.30787 6.86102e-015 -2.31676
vt -89.5046 28.375
v 6.72723 1.57745e-014 -1.56005
vt -82.393 19.107
f 145/293/85 146/294/85 147/295/85 148/296/85 149/297/85 150/298/85 151/299/85 144/300/85 141/301/85 139/302/85 137/303/85 135/304/85 133/305/85 131/306/85 129/307/85 127/308/85 125/309/85 121/310/85 124/311/85 152/312/85 153/313/85 154/314/85 155/315/85 156/316/85 

v 6.21545 1.14393 -0.555142
vt 72.9323 21.8265
vn 0.459626 -0.393669 0.796096
v 5.21609 1.14393 -0.141191
vt 59.6839 21.8265
vn 0.23792 -0.393669 0.88793
vt 60.467 6.60538
vt 72.1491 6.60538
f 157/317/86 158/318/87 146/319/87 145/320/86 

vt 63.5642 15.4851
v 4.14364 1.14393 -4.88498e-014
vt 50.3158 15.4851
vn -6.64428e-015 -0.393669 0.919252
vt 51.099 0.264011
vt 62.7811 0.264011
f 158/321/87 159/322/88 147/323/88 146/324/87 

vt 50.3158 10.3074
v 3.07118 1.14393 -0.141191
vt 37.0674 10.3074
vn -0.23792 -0.393669 0.88793
vt 37.8506 -4.9137
vt 49.5327 -4.9137
f 159/325/88 160/326/89 148/327/89 147/328/88 

vt 34.0899 6.64621
v 2.07182 1.14393 -0.555142
vt 20.8415 6.64621
vn -0.459626 -0.393669 0.796096
vt 21.6247 -8.57489
vt 33.3067 -8.57489
f 160/329/89 161/330/90 149/331/90 148/332/89 

vt 15.9922 4.75104
v 1.21364 1.14393 -1.21364
vt 2.74384 4.75104
vn -0.65001 -0.393669 0.65001
vt 3.52699 -10.4701
vt 15.2091 -10.4701
f 161/333/90 162/334/91 150/335/91 149/336/90 

vt -2.74384 4.75104
v 0.555142 1.14393 -2.07182
vt -15.9922 4.75104
vn -0.796096 -0.393669 0.459626
vt -15.2091 -10.4701
vt -3.52699 -10.4701
f 162/337/91 163/338/92 151/339/92 150/340/91 

vt -20.8415 6.64621
vt -34.0899 6.64621
vt -33.3067 -8.57489
vt -21.6247 -8.57489
f 163/341/92 143/342/84 144/343/84 151/344/92 

v 7.07363 1.14393 -1.21364
vt 77.7815 28.8994
vn 0.65001 -0.393669 0.65001
vt 64.5331 28.8994
vt 65.3163 13.6783
vt 76.9984 13.6783
f 164/345/93 157/346/86 145/347/86 156/348/93 

v 7.73213 1.14393 -2.07182
vt 77.7815 36.2217
vn 0.796096 -0.393669 0.459626
vt 64.5331 36.2217
vt 65.3163 21.0006
vt 76.9984 21.0006
f 165/349/94 164/350/93 156/351/93 155/352/94 

v 8.14608 1.14393 -3.07118
vt 72.9323 43.2946
vn 0.88793 -0.393669 0.23792
vt 59.6839 43.2946
vt 60.467 28.0735
vt 72.1491 28.0735
f 166/353/95 165/354/94 155/355/94 154/356/95 

v 8.28727 1.14393 -4.14364
vt 63.5642 49.636
vn 0.919252 -0.393669 3.84424e-016
vt 50.3158 49.636
vt 51.099 34.4149
vt 62.7811 34.4149
f 167/357/96 166/358/95 154/359/95 153/360/96 

vt 49.5327 39.5926
vn 0.88793 -0.393669 -0.23792
v 8.14608 1.14393 -5.21609
vt 50.3158 54.8137
vt 37.0674 54.8137
vt 37.8506 39.5926
f 152/361/97 168/362/97 167/363/96 153/364/96 

vt 33.3067 43.2538
vt 34.0899 58.4749
vt 20.8415 58.4749
vt 21.6247 43.2538
f 124/365/74 123/366/74 168/367/97 152/368/97 

