# Blender v2.74 (sub 0) OBJ File: ''
# www.blender.org
mtllib Kurk.mtl
o rubber_stopper
v 0.001339 0.019522 0.006920
v -0.000460 0.000480 0.007032
v 0.001339 0.000480 0.006920
v -0.000460 0.019522 0.007032
v 0.003047 0.019522 0.006346
v -0.002226 0.000480 0.006676
v -0.002226 0.019522 0.006676
v -0.003840 0.000480 0.005874
v -0.003840 0.019522 0.005874
v -0.005191 0.000480 0.004681
v -0.005191 0.019522 0.004681
v -0.006188 0.019522 0.003180
v -0.006188 0.000480 0.003180
v -0.006762 0.019522 0.001471
v -0.006762 0.000480 0.001471
v -0.006874 0.019522 -0.000327
v -0.006874 0.000480 -0.000327
v -0.006517 0.019522 -0.002094
v -0.006517 0.000480 -0.002094
v -0.005715 0.019522 -0.003708
v -0.005715 0.000480 -0.003708
v -0.004523 0.019522 -0.005059
v -0.004523 0.000480 -0.005059
v -0.003022 0.000480 -0.006055
v -0.003022 0.019522 -0.006055
v -0.001313 0.000480 -0.006630
v -0.001313 0.019522 -0.006630
v 0.000485 0.000480 -0.006742
v 0.000485 0.019522 -0.006742
v 0.002252 0.000480 -0.006385
v 0.002252 0.019522 -0.006385
v 0.003866 0.000480 -0.005583
v 0.003866 0.019522 -0.005583
v 0.005217 0.000480 -0.004391
v 0.005217 0.019522 -0.004391
v 0.006214 0.019522 -0.002889
v 0.006214 0.000480 -0.002889
v 0.006788 0.019522 -0.001181
v 0.006788 0.000480 -0.001181
v 0.006900 0.019522 0.000618
v 0.006900 0.000480 0.000618
v 0.006543 0.019522 0.002384
v 0.006543 0.000480 0.002384
v 0.005741 0.019522 0.003998
v 0.005741 0.000480 0.003998
v 0.004549 0.019522 0.005349
v 0.004549 0.000480 0.005349
v 0.003047 0.000480 0.006346
v -0.014831 0.000480 0.004123
v -0.019363 0.018420 0.000145
v -0.018703 0.018420 0.005160
v -0.015354 0.000480 0.000145
v -0.013295 0.000480 0.007829
v -0.014831 0.000480 -0.003832
v -0.018703 0.018420 -0.004870
v -0.013295 0.000480 -0.007538
v -0.016767 0.018420 -0.009543
v -0.010853 0.000480 -0.010721
v -0.013688 0.018420 -0.013555
v -0.009675 0.018420 -0.016635
v -0.007671 0.000480 -0.013163
v -0.005002 0.018420 -0.018570
v -0.003964 0.000480 -0.014698
v 0.000013 0.018420 -0.019230
v 0.000013 0.000480 -0.015222
v 0.005028 0.018420 -0.018570
v 0.003990 0.000480 -0.014698
v 0.009701 0.018420 -0.016635
v 0.007696 0.000480 -0.013163
v 0.013714 0.018420 -0.013555
v 0.010879 0.000480 -0.010721
v 0.016793 0.018420 -0.009543
v 0.013321 0.000480 -0.007538
v 0.018728 0.018420 -0.004870
v 0.014856 0.000480 -0.003832
v 0.019389 0.018420 0.000145
v 0.015380 0.000480 0.000145
v 0.014856 0.000480 0.004123
v 0.018728 0.018420 0.005160
v 0.013321 0.000480 0.007829
v 0.016793 0.018420 0.009833
v 0.010879 0.000480 0.011011
v 0.013714 0.018420 0.013846
v 0.009701 0.018420 0.016925
v 0.007696 0.000480 0.013453
v 0.005028 0.018420 0.018861
v 0.003990 0.000480 0.014989
v 0.000013 0.018420 0.019521
v 0.000013 0.000480 0.015512
v -0.005002 0.018420 0.018861
v -0.003964 0.000480 0.014989
v -0.009675 0.018420 0.016925
v -0.007671 0.000480 0.013453
v -0.013688 0.018420 0.013846
v -0.010853 0.000480 0.011011
v -0.016767 0.018420 0.009833
v -0.018703 0.019522 0.005160
v -0.019363 0.019522 0.000145
v -0.016767 0.019522 0.009833
v -0.013688 0.019522 0.013846
v -0.009675 0.019522 0.016925
v -0.005002 0.019522 0.018861
v 0.000013 0.019522 0.019521
v 0.005028 0.019522 0.018861
v 0.009701 0.019522 0.016925
v 0.013714 0.019522 0.013846
v 0.016793 0.019522 0.009833
v 0.018728 0.019522 0.005160
v 0.019389 0.019522 0.000145
v 0.018728 0.019522 -0.004870
v 0.016793 0.019522 -0.009543
v 0.013714 0.019522 -0.013555
v 0.009701 0.019522 -0.016635
v 0.005028 0.019522 -0.018570
v 0.000013 0.019522 -0.019230
v -0.005002 0.019522 -0.018570
v -0.009675 0.019522 -0.016635
v -0.013688 0.019522 -0.013555
v -0.016767 0.019522 -0.009543
v -0.018703 0.019522 -0.004870
vn -0.068400 -0.000000 0.997700
vn 0.192100 -0.000000 0.981400
vn -0.558100 -0.000000 0.829800
vn -0.324300 -0.000000 0.946000
vn -0.753900 0.000100 0.657000
vn -0.753800 -0.000000 0.657100
vn -0.898200 -0.000000 0.439600
vn -0.981400 -0.000000 0.192100
vn -0.997700 -0.000000 -0.068500
vn -0.997700 0.000000 -0.068400
vn -0.946000 0.000000 -0.324300
vn -0.829800 0.000000 -0.558100
vn -0.657100 -0.000000 -0.753800
vn -0.192100 -0.000000 -0.981400
vn 0.068400 0.000000 -0.997700
vn 0.324300 -0.000000 -0.946000
vn 0.753900 0.000000 -0.657000
vn 0.898200 0.000000 -0.439600
vn 0.981400 -0.000000 -0.192100
vn 0.997700 -0.000000 0.068500
vn 0.945900 -0.000000 0.324300
vn 0.997700 -0.000000 0.068400
vn 0.829800 -0.000000 0.558100
vn 0.946000 -0.000000 0.324300
vn 0.657100 -0.000000 0.753800
vn 0.439600 -0.000000 0.898200
vn 0.942700 0.218100 -0.252600
vn 0.845200 0.218100 -0.488000
vn 0.942700 0.218100 0.252600
vn 0.975900 0.218100 -0.000000
vn 0.845200 0.218100 0.488000
vn 0.690100 0.218100 0.690100
vn 0.488000 0.218100 0.845200
vn 0.252600 0.218100 0.942700
vn -0.000000 0.218000 0.975900
vn -0.488000 0.218100 0.845200
vn -0.252600 0.218100 0.942700
vn -0.690100 0.218100 0.690100
vn -0.845200 0.218100 0.488000
vn -0.942700 0.218100 0.252600
vn -0.975900 0.218100 -0.000000
vn -0.942700 0.218100 -0.252600
vn -0.845200 0.218100 -0.488000
vn -0.690100 0.218000 -0.690100
vn -0.690100 0.218100 -0.690100
vn -0.488000 0.218100 -0.845200
vn -0.252600 0.218100 -0.942700
vn 0.000000 0.218100 -0.975900
vn 0.252600 0.218100 -0.942700
vn 0.488000 0.218100 -0.845200
vn 0.690100 0.218100 -0.690100
vn -0.000000 1.000000 0.000000
vn 0.965900 0.000000 -0.258800
vn 0.866000 0.000000 -0.500000
vn 0.707100 0.000000 -0.707100
vn 0.500000 0.000000 -0.866000
vn -0.000000 -0.000000 -1.000000
vn 0.258800 0.000000 -0.965900
vn -0.500000 -0.000000 -0.866000
vn -0.258800 0.000000 -0.965900
vn -0.866000 0.000000 -0.500000
vn -0.707100 0.000000 -0.707100
vn -0.965900 0.000000 -0.258800
vn -1.000000 0.000000 -0.000000
vn -0.965900 0.000000 0.258800
vn -0.866000 0.000000 0.500000
vn -0.707100 0.000000 0.707100
vn -0.500000 -0.000000 0.866000
vn -0.258800 0.000000 0.965900
vn -0.000000 0.000000 1.000000
vn 0.258800 0.000000 0.965900
vn 0.500000 0.000000 0.866000
vn 0.707100 0.000000 0.707100
vn 0.866000 0.000000 0.500000
vn 1.000000 -0.000000 -0.000000
vn 0.965900 -0.000000 0.258800
vn 0.000000 -1.000000 0.000000
vn -0.439500 0.000000 -0.898200
vn -0.945900 0.000000 -0.324300
vn -0.898200 -0.000000 0.439500
vn 0.657000 -0.000000 0.753900
vn 0.753800 0.000000 -0.657100
vn 0.558100 0.000000 -0.829800
vn -0.975900 -0.218100 -0.000000
vn -0.942700 -0.218100 0.252600
vn -0.845200 -0.218100 -0.488000
vn -0.942700 -0.218100 -0.252600
vn -0.690100 -0.218100 -0.690100
vn -0.488000 -0.218100 -0.845200
vn -0.252600 -0.218100 -0.942700
vn 0.000000 -0.218100 -0.975900
vn 0.252600 -0.218100 -0.942700
vn 0.488000 -0.218100 -0.845200
vn 0.690100 -0.218100 -0.690100
vn 0.942700 -0.218100 -0.252600
vn 0.845200 -0.218100 -0.488000
vn 0.975900 -0.218100 -0.000000
vn 0.845200 -0.218100 0.488000
vn 0.942700 -0.218100 0.252600
vn 0.690100 -0.218100 0.690100
vn 0.488000 -0.218100 0.845200
vn 0.000000 -0.218100 0.975900
vn -0.252600 -0.218100 0.942700
vn -0.488000 -0.218100 0.845200
vn -0.690100 -0.218100 0.690100
vn -0.707100 -0.000100 0.707100
vn -0.965900 -0.000100 -0.258800
usemtl ID6
s 1
f 2//1 1//2 4//1
f 8//3 7//4 9//3
f 9//3 10//5 8//3
f 10//5 9//3 11//6
f 12//7 10//5 11//6
f 14//8 13//7 12//7
f 13//7 14//8 15//8
f 16//9 15//8 14//8
f 17//10 18//11 19//11
f 19//11 20//12 21//12
f 22//13 21//12 20//12
f 27//14 28//15 26//14
f 28//15 27//14 29//15
f 30//16 29//15 31//16
f 34//17 36//18 37//18
f 36//18 34//17 35//17
f 38//19 37//18 36//18
f 40//20 39//19 38//19
f 42//21 41//22 40//22
f 44//23 43//24 42//24
f 45//23 46//25 47//25
f 46//25 48//26 47//25
f 48//26 46//25 5//26
f 5//26 3//2 48//26
f 51//27 53//28 49//27
f 54//29 50//30 52//30
f 50//30 54//29 55//29
f 56//31 55//29 54//29
f 57//31 58//32 59//32
f 60//33 58//32 61//33
f 58//32 60//33 59//32
f 62//34 61//33 63//34
f 63//34 64//35 62//34
f 68//36 67//37 69//36
f 70//38 69//36 71//38
f 71//38 72//39 70//38
f 72//39 71//38 73//39
f 73//39 74//40 72//39
f 75//40 76//41 74//40
f 76//41 78//42 79//42
f 78//42 76//41 77//41
f 80//43 79//42 78//42
f 81//43 82//44 83//45
f 85//46 86//47 84//46
f 86//47 85//46 87//47
f 87//47 88//48 86//47
f 88//48 87//47 89//48
f 91//49 92//50 90//49
f 95//51 96//28 94//51
f 96//28 95//51 53//28
f 53//28 51//27 96//28
f 49//52 54//52 52//52
f 54//52 49//52 53//52
f 56//52 53//52 95//52
f 56//52 95//52 58//52
f 61//52 19//52 63//52
f 15//52 93//52 91//52
f 15//52 91//52 13//52
f 13//52 91//52 10//52
f 2//52 89//52 3//52
f 3//52 87//52 48//52
f 47//52 85//52 45//52
f 69//52 39//52 41//52
f 69//52 37//52 39//52
f 65//52 28//52 67//52
f 67//52 32//52 34//52
f 63//52 24//52 65//52
f 65//52 24//52 26//52
f 63//52 19//52 21//52
f 63//52 21//52 23//52
f 73//52 80//52 75//52
f 75//52 80//52 78//52
f 75//52 78//52 77//52
f 51//53 99//54 96//54
f 100//55 92//56 94//55
f 88//57 102//58 103//57
f 84//59 104//60 105//59
f 107//61 83//62 106//62
f 83//62 107//61 81//61
f 81//61 108//63 79//63
f 109//64 79//63 108//63
f 79//63 109//64 76//64
f 110//65 76//64 109//64
f 76//64 110//65 74//65
f 74//65 111//66 72//66
f 112//67 72//66 111//66
f 72//66 112//67 70//67
f 68//68 112//67 113//68
f 113//68 66//69 68//68
f 64//70 114//69 115//70
f 115//70 62//71 64//70
f 62//71 115//70 116//71
f 116//71 60//72 62//71
f 59//73 119//74 57//74
f 98//75 55//76 120//76
f 97//77 120//77 119//77
f 101//77 116//77 16//77
f 14//77 101//77 16//77
f 20//77 116//77 22//77
f 22//77 115//77 25//77
f 29//77 114//77 31//77
f 33//77 114//77 35//77
f 35//77 114//77 113//77
f 35//77 113//77 36//77
f 38//77 113//77 40//77
f 105//77 40//77 113//77
f 105//77 42//77 40//77
f 105//77 44//77 42//77
f 106//77 112//77 111//77
f 106//77 111//77 107//77
f 104//77 5//77 46//77
f 104//77 1//77 5//77
f 103//77 4//77 1//77
f 103//77 1//77 104//77
f 102//77 9//77 103//77
f 103//77 7//77 4//77
f 102//77 14//77 12//77
f 102//77 12//77 11//77
f 102//77 11//77 9//77
usemtl ID10
f 7//16 4//15 6//16
f 2//15 6//16 4//15
f 3//14 2//15 1//14
f 1//14 5//78 3//14
f 44//12 45//12 46//13
f 45//12 44//12 43//11
f 43//79 42//79 41//10
f 41//9 40//9 39//8
f 39//8 38//8 37//80
f 35//6 33//3 34//6
f 32//3 34//6 33//3
f 33//3 31//4 32//3
f 30//4 32//3 31//4
f 28//1 30//4 29//1
f 27//2 25//26 26//2
f 24//26 26//2 25//26
f 25//26 22//25 24//26
f 23//81 24//26 22//25
f 23//81 22//25 21//23
f 18//24 19//24 20//23
f 16//22 17//22 18//24
f 17//22 16//22 15//19
f 13//18 12//18 10//82
f 6//16 8//83 7//16
f 52//84 49//85 50//84
f 51//85 50//84 49//85
f 57//86 56//86 55//87
f 56//86 57//86 58//88
f 60//89 62//90 61//89
f 65//91 63//90 64//91
f 64//91 66//92 65//91
f 67//92 65//91 66//92
f 66//92 68//93 67//92
f 68//93 70//94 69//93
f 75//95 73//96 74//95
f 77//97 75//95 76//97
f 81//98 80//98 79//99
f 80//98 81//98 82//100
f 83//100 84//101 82//100
f 85//101 82//100 84//101
f 88//102 90//103 89//102
f 91//103 89//102 90//103
f 93//104 91//103 92//104
f 92//104 94//105 93//104
f 95//105 93//104 94//105
f 69//77 85//77 41//77
f 41//77 85//77 43//77
f 37//77 34//77 69//77
f 69//77 34//77 67//77
f 71//77 85//77 69//77
f 32//77 30//77 67//77
f 30//77 28//77 67//77
f 28//77 26//77 65//77
f 24//77 23//77 63//77
f 17//77 61//77 19//77
f 17//77 93//77 61//77
f 93//77 95//77 61//77
f 61//77 95//77 58//77
f 15//77 93//77 17//77
f 89//77 91//77 8//77
f 8//77 91//77 10//77
f 87//77 89//77 3//77
f 2//77 89//77 6//77
f 6//77 89//77 8//77
f 85//77 87//77 47//77
f 47//77 87//77 48//77
f 82//77 85//77 71//77
f 43//77 85//77 45//77
f 80//77 82//77 73//77
f 73//77 82//77 71//77
f 56//77 53//77 54//77
f 98//64 50//64 97//65
f 50//64 98//64 55//63
f 51//65 97//65 50//64
f 97//65 51//65 99//66
f 99//66 96//66 100//106
f 94//67 100//106 96//66
f 101//68 100//67 92//68
f 102//69 101//68 90//69
f 92//68 90//69 101//68
f 90//69 88//70 102//69
f 104//71 103//70 86//71
f 88//70 86//71 103//70
f 86//71 84//72 104//71
f 106//73 105//72 83//73
f 84//72 83//73 105//72
f 107//74 81//74 108//76
f 110//53 74//53 111//54
f 70//55 68//56 112//55
f 114//58 113//56 66//58
f 66//58 64//57 114//58
f 117//59 116//60 60//59
f 118//62 117//59 59//62
f 60//59 59//62 117//59
f 118//62 59//62 119//61
f 119//61 57//61 120//107
f 55//63 120//107 57//61
f 109//52 110//52 108//52
f 108//52 110//52 107//52
f 110//52 111//52 107//52
f 106//52 112//52 105//52
f 112//52 113//52 105//52
f 105//52 44//52 104//52
f 38//52 113//52 36//52
f 33//52 114//52 31//52
f 114//52 115//52 29//52
f 29//52 115//52 27//52
f 27//52 115//52 25//52
f 115//52 116//52 22//52
f 20//52 116//52 18//52
f 18//52 116//52 16//52
f 116//52 117//52 101//52
f 102//52 14//52 101//52
f 101//52 117//52 100//52
f 117//52 118//52 100//52
f 100//52 118//52 99//52
f 118//52 119//52 99//52
f 99//52 119//52 97//52
f 98//52 97//52 120//52
f 7//52 9//52 103//52
f 44//52 46//52 104//52
