# File produced by Open Asset Import Library (http://www.assimp.sf.net)
# (assimp v3.1.187496374)

mtllib Menu.mtl

# 8 vertex positions
v  2.87145 3.10522 -1.23095e-15
v  0 3.10522 -0.1016
v  0 3.10522 -1.23095e-15
v  2.87145 3.10522 -0.1016
v  2.87145 0 -0.1016
v  0 0 -0.1016
v  0 0 0
v  2.87145 0 0

# 17 UV coordinates
vt 14.1312 6.05784e-15 0
vt 0 0.5 0
vt 0 6.05784e-15 0
vt 14.1312 0.5 0
vt 0 15.2816 0
vt -14.1312 0 0
vt 0 0 0
vt -14.1312 15.2816 0
vt -6.05784e-15 15.2816 0
vt -0.5 0 0
vt -0.5 15.2816 0
vt 0.5 0 0
vt 6.05784e-15 15.2816 0
vt 0.5 15.2816 0
vt -14.1312 0.5 0
vt 14.1312 15.2816 0
vt 14.1312 0 0

# 7 vertex normals
vn 0 0.0254 0
vn 0 0 -0.0254
vn -0.0254 0 0
vn 0.0254 0 0
vn 0 -0.0254 0
vn 0 1.00689e-17 0.0254
vn 0 0 0.0254

# Mesh 'SketchUp' with 12 faces
g SketchUp
usemtl ID3
f  1/1/1 2/2/1 3/3/1
f  2/2/1 1/1/1 4/4/1
f  2/5/2 5/6/2 6/7/2
f  5/6/2 2/5/2 4/8/2
f  3/9/3 6/10/3 7/7/3
f  6/10/3 3/9/3 2/11/3
f  5/12/4 1/13/4 8/7/4
f  1/13/4 5/12/4 4/14/4
f  5/15/5 7/7/5 6/2/5
f  7/7/5 5/15/5 8/6/5
f  1/16/6 7/7/6 8/17/6
f  7/7/6 1/16/6 3/5/6

# Mesh 'SketchUp_ID15' with 10 faces
g SketchUp_ID15
usemtl ID20
f  4//5 1//5 2//5
f  3//5 2//5 1//5
f  4//7 2//7 5//7
f  6//7 5//7 2//7
f  2//4 3//4 6//4
f  7//4 6//4 3//4
f  4//3 5//3 1//3
f  8//3 1//3 5//3
f  8//1 5//1 7//1
f  6//1 7//1 5//1

