# File produced by Open Asset Import Library (http://www.assimp.sf.net)
# (assimp v3.1.187496374)

mtllib Tissue.obj.mtl

# 23 vertex positions
v  0.0982305 0.204314 -0.102422
v  0.0733101 0.133714 -0.0821574
v  0.106602 0.133739 -0.0796432
v  0.11577 0.0564475 -0.0546973
v  0.0367667 0.0301849 -0.0524417
v  0.137151 0.145081 -0.0839846
v  0.127298 0.310153 -0.132915
v  0.175442 0.211724 -0.105929
v  0.180496 0.319657 -0.0881991
v  0.157614 0.134086 -0.0779319
v  0.139786 0.0564475 -0.0499348
v  0.183392 0.329711 -0.0791687
v  0.195465 0.0503108 -0.0791687
v  0.188785 0.204916 -0.0791687
v  0.226808 0.230123 -0.108517
v  0.203252 0.0503108 -0.107258
v  0.239841 0.329326 -0.08896
v  0.214227 0.134086 -0.0797552
v  0.214004 0.134079 -0.0797422
v  0.214166 0.133623 -0.079752
v  0.267575 0.34371 -0.100519
v  0.26828 0.0741077 -0.0791687
v  0.26828 0.233739 -0.107891

# 0 UV coordinates

# 38 vertex normals
vn -0.0018311 0.00758435 0.024172
vn 0.00051532 0.00785535 0.0241493
vn -0.000605255 0.00718326 0.0243556
vn 0.00125928 0.00727872 0.0243021
vn -0.0160067 -0.0024647 0.0195671
vn -0.00214762 0.00902045 0.023647
vn -0.0241295 -0.000172852 0.00793087
vn 0.0120054 0.00510249 0.0217944
vn -0.0228133 -0.000985758 0.0111239
vn 0.0152394 0.000658493 0.0203098
vn 0.0244556 0.00105672 0.00677988
vn 0.00420702 -0.00537581 0.0244655
vn 0.0132827 0.004596 0.0211567
vn -0.0137295 -0.005057 0.0207626
vn 0.0120287 -0.00583775 0.0215961
vn 0.006654 0.00622857 0.0237084
vn -0.000234151 -0.0017002 0.025342
vn -0.000769018 0.00449589 0.0249871
vn 0.00463213 -0.00883587 -0.0233587
vn 0.00761127 0.00669232 -0.0232904
vn 0.0018311 -0.00758435 -0.024172
vn -0.00051532 -0.00785535 -0.0241493
vn 0.000605255 -0.00718326 -0.0243556
vn -0.00125928 -0.00727872 -0.0243021
vn 0.0160067 0.0024647 -0.0195671
vn 0.00214762 -0.00902045 -0.023647
vn 0.0241295 0.000172852 -0.00793087
vn -0.0120054 -0.00510249 -0.0217944
vn 0.0228133 0.000985758 -0.0111239
vn -0.0152394 -0.000658493 -0.0203098
vn -0.0244556 -0.00105672 -0.00677988
vn -0.00420702 0.00537581 -0.0244655
vn -0.0132827 -0.004596 -0.0211567
vn 0.0137295 0.005057 -0.0207626
vn -0.0120287 0.00583775 -0.0215961
vn -0.006654 -0.00622857 -0.0237084
vn 0.000234151 0.0017002 -0.025342
vn 0.000769018 -0.00449589 -0.0249871

# Mesh 'Box_of_Tissue' with 52 faces
g Box_of_Tissue
usemtl JoinedMaterial_#1
f  1//1 2//1 3//1
f  3//1 2//1 4//1
f  5//1 4//1 2//1
f  1//2 3//2 6//2
f  4//2 6//2 3//2
f  1//3 6//3 7//3
f  6//4 8//4 7//4
f  7//5 8//5 9//5
f  8//6 6//6 10//6
f  11//6 10//6 6//6
f  12//7 9//7 8//7
f  11//8 13//8 10//8
f  8//8 10//8 13//8
f  14//9 12//9 8//9
f  13//9 14//9 8//9
f  14//10 15//10 12//10
f  14//11 13//11 16//11
f  15//12 17//12 12//12
f  14//13 18//13 15//13
f  19//14 14//14 20//14
f  16//14 20//14 14//14
f  17//15 15//15 21//15
f  18//16 22//16 15//16
f  15//17 23//17 21//17
f  15//18 22//18 23//18
f  6//19 11//19 4//19
f  20//20 22//20 16//20
f  2//21 4//21 5//21
f  4//21 2//21 3//21
f  3//21 2//21 1//21
f  3//22 6//22 4//22
f  6//22 3//22 1//22
f  7//23 6//23 1//23
f  7//24 8//24 6//24
f  9//25 8//25 7//25
f  6//26 10//26 11//26
f  10//26 6//26 8//26
f  8//27 9//27 12//27
f  13//28 10//28 8//28
f  10//28 13//28 11//28
f  8//29 12//29 14//29
f  8//29 14//29 13//29
f  12//30 15//30 14//30
f  16//31 13//31 14//31
f  12//32 17//32 15//32
f  15//33 18//33 14//33
f  14//34 20//34 16//34
f  20//34 14//34 19//34
f  21//35 15//35 17//35
f  15//36 22//36 18//36
f  21//37 23//37 15//37
f  23//38 22//38 15//38

