# Blender v2.74 (sub 0) OBJ File: ''
# www.blender.org
mtllib untitled.mtl
g Box_of_Tissue
v -0.109942 0.032418 0.022521
v -0.133119 0.048569 0.094757
v -0.099764 0.047130 0.094976
v -0.088618 0.063241 0.174327
v -0.167106 0.072253 0.200684
v -0.069808 0.040331 0.083266
v -0.083443 0.009071 -0.085781
v -0.033596 0.020560 0.014805
v -0.025258 0.047907 -0.090893
v -0.048903 0.042838 0.094797
v -0.064211 0.065115 0.174790
v -0.021207 0.057461 -0.100021
v -0.012422 0.029063 0.178055
v -0.017283 0.044777 0.024183
v 0.017318 0.013720 -0.003758
v -0.007987 0.000383 0.175324
v 0.033694 0.041089 -0.100590
v 0.007100 0.034358 0.094620
v 0.006880 0.034397 0.094628
v 0.007035 0.034324 0.095081
v 0.060042 0.027782 -0.116030
v 0.060157 0.022772 0.154371
v 0.058616 0.009796 -0.007296
vt 0.675040 0.637825
vt 0.675040 0.307130
vt 0.501765 0.490607
vt 0.675040 0.847873
vt 0.588740 0.654527
vt 0.151416 0.498764
vt 0.157818 0.000000
vt 0.041374 0.299796
vt 0.099596 0.535075
vt 0.580045 1.000000
vt 0.501765 0.660556
vt 0.554416 0.971424
vt 0.157818 0.770354
vt 0.000000 0.777508
vt 0.580045 0.637825
vt 0.878114 0.756130
vt 0.954200 0.307356
vt 0.908047 0.307130
vt 0.435374 0.014142
vt 0.356298 0.307130
vt 0.506770 0.277599
vt 0.729843 0.189664
vt 0.826919 0.292907
vt 0.826919 0.000000
vt 0.954477 0.515820
vt 0.954200 0.517166
vt 1.000000 0.307130
vt 1.000000 0.766467
vt 0.590436 0.307130
vt 0.544313 0.000000
vt 0.191073 0.247552
vt 0.301438 0.000000
vt 0.356298 0.035000
vt 0.729843 0.257246
vt 0.590436 0.117242
vt 0.729843 0.000000
vt 0.356298 0.302871
vt 0.278428 0.257009
vt 0.207325 0.459727
vt 0.769131 0.307130
vt 0.769132 0.809050
vt 0.675040 0.622469
vt 0.157818 0.717365
vt 0.329972 0.459727
vt 0.329972 0.785634
vt 0.157818 0.188871
vt 0.954200 0.783017
vt 0.878114 0.657608
vt 0.769132 0.394028
vt 0.878114 0.307130
vt 0.391307 0.316233
vt 0.501765 0.777181
vt 0.356298 0.607841
vt 0.501765 0.307130
vn -0.043600 -0.977900 0.204700
vn -0.091500 -0.976700 0.194300
vn -0.133800 -0.969000 0.207700
vn -0.089500 -0.973500 0.210200
vn 0.313700 -0.948600 -0.041600
vn 0.014300 -0.993300 0.114900
vn -0.029400 -0.964400 0.262900
vn -0.314500 -0.928300 0.198300
vn 0.906800 -0.420000 -0.037100
vn 0.811700 -0.577800 -0.085400
vn -0.499600 -0.854500 0.142400
vn -0.826500 -0.559000 0.065700
vn 0.759200 -0.647600 -0.064700
vn 0.149500 -0.988200 -0.034300
vn -0.259000 -0.934800 -0.243200
vn -0.987900 -0.154200 0.015500
vn -0.583800 -0.811300 -0.031500
vn -0.275100 -0.912000 -0.304300
vn -0.424100 -0.894100 0.143500
vn 0.710100 0.691800 -0.131300
vn 0.385200 -0.873000 -0.299100
vn 0.443000 -0.852500 -0.277600
vn 0.244700 -0.908600 -0.338500
vn -0.567400 -0.762300 -0.311400
vn -0.097000 -0.994800 -0.029300
vn -0.107200 -0.980700 -0.163600
vn -0.098600 -0.994000 -0.048300
vn 0.069100 -0.964000 0.256800
vn 0.192900 -0.916100 -0.351400
vn -0.135300 -0.967100 0.215400
vn -0.372500 -0.915300 0.153300
vn -0.087400 -0.992900 0.080500
g Box_of_Tissue_Box_of_Tissue_JoinedMaterial_#1
usemtl JoinedMaterial_#1
s 1
f 5/1/1 2/2/1 4/3/1
f 1/4/2 6/1/3 3/5/4
f 6/6/3 7/7/5 8/8/6
f 8/8/7 10/9/8 6/6/7
f 12/10/9 8/11/6 9/12/10
f 11/13/11 10/9/8 13/14/12
f 8/8/13 13/14/12 10/9/8
f 14/15/14 8/11/13 12/10/15
f 14/16/14 16/17/16 13/18/12
f 15/19/17 12/20/15 17/21/18
f 14/22/14 15/23/17 18/24/19
f 19/25/20 20/26/21 14/27/22
f 16/28/23 14/27/22 20/26/21
f 17/21/24 21/29/24 15/19/24
f 15/19/25 21/29/26 23/30/27
f 6/31/28 11/32/28 4/33/28
f 20/34/21 22/35/29 16/36/23
f 4/33/1 2/37/1 3/38/4
f 3/38/4 2/37/1 1/39/2
f 3/38/4 6/31/3 4/33/30
f 7/40/5 6/41/3 1/42/2
f 9/43/10 8/44/6 7/45/5
f 6/31/7 10/46/8 11/32/11
f 8/47/13 14/16/14 13/18/12
f 12/48/15 15/49/17 14/50/14
f 15/51/17 22/52/31 18/53/19
f 23/54/27 22/52/32 15/51/25
